<?xml version="1.0" standalone="no"?>
<!DOCTYPE svg PUBLIC "-//W3C//DTD SVG 20010904//EN"
 "http://www.w3.org/TR/2001/REC-SVG-20010904/DTD/svg10.dtd">
<svg version="1.0" xmlns="http://www.w3.org/2000/svg"
 width="151.000000pt" height="151.000000pt" viewBox="0 0 151.000000 151.000000"
 preserveAspectRatio="xMidYMid meet">
<metadata>
Created by potrace 1.16, written by Peter Selinger 2001-2019
</metadata>
<g transform="translate(0.000000,151.000000) scale(0.100000,-0.100000)"
fill="#683931" stroke="none">
<path d="M970 1223 l0 -227 -37 36 c-72 68 -114 83 -238 83 -100 0 -116 -3
-172 -29 -77 -35 -163 -123 -200 -202 -39 -85 -53 -148 -59 -269 -11 -195 36
-337 148 -449 95 -95 208 -130 345 -107 80 14 135 44 186 100 l37 41 0 -60 0
-60 135 0 135 0 0 685 0 685 -140 0 -140 0 0 -227z m-119 -366 c89 -47 138
-170 126 -318 -9 -110 -58 -198 -132 -237 -44 -23 -131 -20 -182 7 -169 86
-156 491 17 560 46 18 124 13 171 -12z"/>
</g>
</svg>
