<?xml version="1.0" standalone="no"?>
<!DOCTYPE svg PUBLIC "-//W3C//DTD SVG 20010904//EN"
 "http://www.w3.org/TR/2001/REC-SVG-20010904/DTD/svg10.dtd">
<svg version="1.0" xmlns="http://www.w3.org/2000/svg"
 width="151.000000pt" height="150.000000pt" viewBox="0 0 151.000000 150.000000"
 preserveAspectRatio="xMidYMid meet">
<metadata>
Created by potrace 1.16, written by Peter Selinger 2001-2019
</metadata>
<g transform="translate(0.000000,150.000000) scale(0.100000,-0.100000)"
fill="#DBB753" stroke="none">
<path d="M570 1266 c-111 -31 -177 -81 -220 -169 -17 -34 -33 -86 -37 -115
l-6 -52 129 0 129 0 23 49 c28 62 65 81 156 81 108 0 156 -30 156 -98 0 -29
-28 -63 -64 -76 -10 -4 -80 -15 -155 -26 -177 -26 -247 -50 -309 -105 -70 -63
-95 -126 -95 -236 0 -74 4 -95 27 -143 51 -104 127 -148 267 -154 125 -5 187
12 274 78 36 27 65 44 65 37 0 -7 5 -29 11 -49 l10 -38 149 0 c145 0 150 1
150 21 0 11 -9 28 -20 37 -12 10 -25 35 -30 57 -5 22 -10 181 -10 353 0 194
-4 330 -11 357 -23 89 -112 159 -241 190 -77 18 -284 18 -348 1z m320 -701
c-18 -60 -44 -90 -102 -119 -91 -45 -199 -30 -227 31 -16 34 -14 89 5 124 20
39 73 63 189 84 50 10 101 23 115 30 l25 13 3 -61 c2 -34 -2 -80 -8 -102z"/>
</g>
</svg>
