<?xml version="1.0" standalone="no"?>
<!DOCTYPE svg PUBLIC "-//W3C//DTD SVG 20010904//EN"
 "http://www.w3.org/TR/2001/REC-SVG-20010904/DTD/svg10.dtd">
<svg version="1.0" xmlns="http://www.w3.org/2000/svg"
 width="151.000000pt" height="150.000000pt" viewBox="0 0 151.000000 150.000000"
 preserveAspectRatio="xMidYMid meet">
<metadata>
Created by potrace 1.16, written by Peter Selinger 2001-2019
</metadata>
<g transform="translate(0.000000,150.000000) scale(0.100000,-0.100000)"
fill="#E6B545" stroke="none">
<path d="M660 1280 c-183 -33 -305 -152 -356 -350 -21 -81 -24 -281 -5 -360
43 -180 157 -304 312 -339 76 -18 240 -13 310 8 150 47 263 180 293 344 l7 37
-140 0 -140 0 -15 -53 c-23 -79 -61 -110 -139 -115 -41 -3 -75 1 -99 11 -76
32 -118 131 -118 278 0 211 67 312 206 312 85 0 136 -44 159 -135 l7 -28 139
0 c159 0 149 -8 124 99 -19 80 -58 153 -104 193 -97 86 -281 126 -441 98z"/>
</g>
</svg>
