<?xml version="1.0" standalone="no"?>
<!DOCTYPE svg PUBLIC "-//W3C//DTD SVG 20010904//EN"
 "http://www.w3.org/TR/2001/REC-SVG-20010904/DTD/svg10.dtd">
<svg version="1.0" xmlns="http://www.w3.org/2000/svg"
 width="151.000000pt" height="150.000000pt" viewBox="0 0 151.000000 150.000000"
 preserveAspectRatio="xMidYMid meet">
<metadata>
Created by potrace 1.16, written by Peter Selinger 2001-2019
</metadata>
<g transform="translate(0.000000,150.000000) scale(0.100000,-0.100000)"
fill="#000000" stroke="none">
<path d="M570 1264 c-142 -38 -231 -140 -254 -291 l-6 -43 133 0 133 0 14 42
c23 63 56 82 150 86 58 3 87 0 113 -13 42 -20 65 -65 51 -103 -15 -43 -60 -61
-210 -82 -168 -23 -225 -39 -288 -82 -89 -59 -135 -168 -123 -295 11 -109 58
-182 151 -231 47 -25 60 -27 171 -27 111 0 124 2 170 26 28 15 70 43 95 62
l45 35 10 -47 10 -46 153 -3 c148 -2 152 -2 152 18 0 12 -12 32 -27 45 l-28
23 -5 364 c-4 321 -7 368 -23 403 -36 81 -102 126 -233 160 -76 20 -279 19
-354 -1z m337 -614 c-10 -156 -83 -230 -227 -230 -93 0 -146 70 -118 156 17
51 61 79 156 99 61 13 137 34 191 54 2 0 1 -35 -2 -79z"/>
</g>
</svg>
