<?xml version="1.0" standalone="no"?>
<!DOCTYPE svg PUBLIC "-//W3C//DTD SVG 20010904//EN"
 "http://www.w3.org/TR/2001/REC-SVG-20010904/DTD/svg10.dtd">
<svg version="1.0" xmlns="http://www.w3.org/2000/svg"
 width="151.000000pt" height="151.000000pt" viewBox="0 0 151.000000 151.000000"
 preserveAspectRatio="xMidYMid meet">
<metadata>
Created by potrace 1.16, written by Peter Selinger 2001-2019
</metadata>
<g transform="translate(0.000000,151.000000) scale(0.100000,-0.100000)"
fill="#254C26" stroke="none">
<path d="M780 1426 c-63 -18 -85 -31 -115 -71 -37 -48 -55 -115 -55 -207 l0
-78 -75 0 -75 0 0 -100 0 -100 75 0 75 0 0 -405 0 -405 135 0 135 0 0 405 0
405 85 0 85 0 0 100 0 100 -85 0 -85 0 0 49 c0 76 22 96 104 96 l66 0 0 112 0
113 -112 -1 c-62 0 -133 -6 -158 -13z"/>
</g>
</svg>
