<?xml version="1.0" standalone="no"?>
<!DOCTYPE svg PUBLIC "-//W3C//DTD SVG 20010904//EN"
 "http://www.w3.org/TR/2001/REC-SVG-20010904/DTD/svg10.dtd">
<svg version="1.0" xmlns="http://www.w3.org/2000/svg"
 width="151.000000pt" height="150.000000pt" viewBox="0 0 151.000000 150.000000"
 preserveAspectRatio="xMidYMid meet">
<metadata>
Created by potrace 1.16, written by Peter Selinger 2001-2019
</metadata>
<g transform="translate(0.000000,150.000000) scale(0.100000,-0.100000)"
fill="#C44B6E" stroke="none">
<path d="M550 1453 c-126 -44 -221 -159 -266 -324 -25 -90 -25 -292 0 -374 43
-144 133 -253 244 -296 43 -17 79 -22 152 -23 123 -1 183 19 247 82 l46 47 -5
-92 c-7 -123 -33 -178 -101 -212 -37 -18 -64 -24 -116 -23 -88 0 -136 21 -158
66 l-17 36 -143 0 -143 0 0 -32 c0 -45 40 -126 81 -166 78 -77 194 -112 370
-112 133 0 211 12 285 45 64 28 139 95 166 148 44 87 48 141 48 700 l0 527
-130 0 -130 0 0 -67 0 -68 -25 37 c-28 41 -92 89 -144 106 -49 17 -207 14
-261 -5z m330 -262 c19 -15 46 -50 60 -77 23 -44 25 -60 25 -169 0 -104 -3
-125 -22 -161 -52 -97 -152 -144 -244 -112 -55 18 -88 47 -114 99 -71 139 -37
369 63 431 71 44 170 39 232 -11z"/>
</g>
</svg>
