<?xml version="1.0" standalone="no"?>
<!DOCTYPE svg PUBLIC "-//W3C//DTD SVG 20010904//EN"
 "http://www.w3.org/TR/2001/REC-SVG-20010904/DTD/svg10.dtd">
<svg version="1.0" xmlns="http://www.w3.org/2000/svg"
 width="151.000000pt" height="150.000000pt" viewBox="0 0 151.000000 150.000000"
 preserveAspectRatio="xMidYMid meet">
<metadata>
Created by potrace 1.16, written by Peter Selinger 2001-2019
</metadata>
<g transform="translate(0.000000,150.000000) scale(0.100000,-0.100000)"
fill="#BD6A5C" stroke="none">
<path d="M487 1260 c-78 -20 -134 -60 -180 -130 -17 -24 -17 -23 -17 43 l0 67
-130 0 -130 0 0 -505 0 -505 140 0 140 0 0 346 c0 393 1 399 73 436 60 30 147
22 187 -18 44 -43 50 -99 50 -450 l0 -314 135 0 135 0 0 323 c0 194 4 337 11
360 15 57 62 104 112 115 88 17 157 -16 177 -87 6 -21 10 -181 10 -373 l0
-338 141 0 140 0 -3 402 c-3 396 -3 404 -26 454 -29 64 -92 126 -157 156 -39
17 -69 22 -135 23 -119 0 -179 -22 -252 -95 l-57 -57 -31 48 c-43 67 -111 100
-217 105 -43 2 -95 -1 -116 -6z"/>
</g>
</svg>
