<?xml version="1.0" standalone="no"?>
<!DOCTYPE svg PUBLIC "-//W3C//DTD SVG 20010904//EN"
 "http://www.w3.org/TR/2001/REC-SVG-20010904/DTD/svg10.dtd">
<svg version="1.0" xmlns="http://www.w3.org/2000/svg"
 width="151.000000pt" height="150.000000pt" viewBox="0 0 151.000000 150.000000"
 preserveAspectRatio="xMidYMid meet">
<metadata>
Created by potrace 1.16, written by Peter Selinger 2001-2019
</metadata>
<g transform="translate(0.000000,150.000000) scale(0.100000,-0.100000)"
fill="#000000" stroke="none">
<path d="M740 1457 c-70 -16 -140 -56 -179 -104 l-31 -38 0 63 0 62 -130 0
-130 0 0 -705 0 -705 135 0 135 0 0 250 0 250 41 -41 c52 -52 111 -78 193 -86
235 -22 412 123 462 376 22 112 15 298 -15 391 -67 210 -274 333 -481 287z
m115 -261 c31 -16 48 -37 75 -90 33 -66 35 -74 35 -175 0 -100 -2 -111 -32
-171 -33 -68 -65 -99 -122 -118 -96 -33 -201 13 -254 112 -19 36 -22 56 -22
166 0 109 3 131 23 176 13 29 36 64 51 79 60 56 165 66 246 21z"/>
</g>
</svg>
