<?xml version="1.0" standalone="no"?>
<!DOCTYPE svg PUBLIC "-//W3C//DTD SVG 20010904//EN"
 "http://www.w3.org/TR/2001/REC-SVG-20010904/DTD/svg10.dtd">
<svg version="1.0" xmlns="http://www.w3.org/2000/svg"
 width="151.000000pt" height="150.000000pt" viewBox="0 0 151.000000 150.000000"
 preserveAspectRatio="xMidYMid meet">
<metadata>
Created by potrace 1.16, written by Peter Selinger 2001-2019
</metadata>
<g transform="translate(0.000000,150.000000) scale(0.100000,-0.100000)"
fill="#653830" stroke="none">
<path d="M903 1256 c-56 -18 -97 -49 -144 -108 l-39 -50 0 76 0 76 -130 0
-130 0 0 -510 0 -510 134 0 135 0 3 303 c3 302 3 303 28 352 38 72 104 105
211 105 l79 0 0 140 0 140 -52 -1 c-29 0 -72 -6 -95 -13z"/>
</g>
</svg>
